<?xml version="1.0" encoding="UTF-8"?>
<svg id="Layer_2" data-name="Layer 2" xmlns="http://www.w3.org/2000/svg" viewBox="0 0 388.16 378.25">
  <defs>
    <style>
      .cls-1 {
        fill: #ef456a;
      }

      .cls-2 {
        fill: #43091f;
      }
    </style>
  </defs>
  <g id="Layer_8" data-name="Layer 8">
    <g>
      <rect class="cls-2" y="0" width="388.16" height="378.25" rx="65.52" ry="65.52"/>
      <g>
        <path class="cls-1" d="m137.13,284.13c0,1.96-.56,2.52-2.24,2.52h-27.98c-1.68,0-2.24-.84-2.24-2.52V106.16c0-1.68.56-2.24,2.24-2.24h28.26c1.4,0,1.96.56,1.96,2.24v177.97Z"/>
        <path class="cls-1" d="m164,218.93c0-40.58,28.82-72.76,75.55-72.76,3.64,0,6.44,0,10.63.56v-55.97c0-1.12.56-1.68,1.68-1.68h29.38c1.12,0,1.4.56,1.4,1.4v168.46c0,5.32.28,11.75.84,17.63,0,1.12-.28,1.68-1.4,2.24-16.79,7.56-33.58,10.35-49.25,10.35-39.46,0-68.84-23.23-68.84-70.24Zm86.19-43.65c-3.08-1.12-7-1.68-11.75-1.68-23.51,0-41.13,16.23-41.13,43.65,0,31.06,17.35,43.65,38.34,43.65,5.04,0,10.35-.28,14.55-1.96v-83.67Z"/>
      </g>
    </g>
  </g>
</svg>