<?xml version="1.0" encoding="UTF-8"?>
<svg id="Layer_2" data-name="Layer 2" xmlns="http://www.w3.org/2000/svg" viewBox="0 0 386.49 376.62">
  <defs>
    <style>
      .cls-1 {
        fill: #9b9bfd;
      }

      .cls-2 {
        fill: #00005c;
      }
    </style>
  </defs>
  <g id="Layer_7" data-name="Layer 7">
    <g>
      <rect class="cls-2" width="386.49" height="376.62" rx="65.24" ry="65.24"/>
      <g>
        <path class="cls-1" d="m83.19,100.13c0-1.39.28-2.23,1.67-2.23,10.59-.28,29.53-.84,48.2-.84,50.99,0,71.33,28.7,71.33,59.9,0,43.19-32.88,62.69-73.28,62.69-7.8,0-10.31-.28-15.88-.28v58.23c0,1.39-.56,1.95-1.95,1.95h-28.14c-1.39,0-1.95-.56-1.95-1.95V100.13Zm32.04,90.55c4.46.28,7.8.28,15.88.28,22.01,0,41.24-7.8,41.24-33.43,0-20.34-13.93-32.04-38.17-32.04-8.64,0-15.88.28-18.95.56v64.64Z"/>
        <path class="cls-1" d="m253.15,142.2c1.39,0,2.23.56,2.79,1.95,1.39,3.34,2.51,10.59,2.79,16.44,9.2-11.7,24.8-20.9,42.63-20.9,1.39,0,1.95.28,1.95,1.95v28.98c0,1.11-.56,1.67-2.23,1.67-18.67-.56-34.27,6.13-40.68,14.21v91.11c0,1.39-.84,1.95-2.23,1.95h-27.86c-1.95,0-2.51-.56-2.51-2.23v-96.4c0-13.1-.28-28.14-1.39-37.06,0-1.11.28-1.67,1.67-1.67h25.08Z"/>
      </g>
    </g>
  </g>
</svg>