<?xml version="1.0" encoding="UTF-8"?>
<svg id="Layer_2" data-name="Layer 2" xmlns="http://www.w3.org/2000/svg" viewBox="0 0 382.07 372.31">
  <defs>
    <style>
      .cls-1 {
        fill: #fff;
      }

      .cls-2 {
        fill: #000b1d;
      }
    </style>
  </defs>
  <g id="Layer_10" data-name="Layer 10">
    <g>
      <rect class="cls-2" width="382.07" height="372.31" rx="64.49" ry="64.49"/>
      <g>
        <path class="cls-1" d="m93.12,269.61c-1.38-.83-1.65-1.93-1.65-4.13v-27.54c0-1.1.83-1.65,1.93-1.1,14.05,9.09,30.57,13.5,45.72,13.5,21.48,0,30.57-9.09,30.57-20.93,0-9.92-6.06-17.63-26.17-27.54l-11.84-5.23c-31.67-14.87-40.21-31.67-40.21-52.06,0-28.65,20.93-50.96,60.87-50.96,16.8,0,30.85,2.48,39.11,6.89,1.38.55,1.65,1.65,1.65,3.31v25.89c0,1.1-.83,2.2-2.2,1.1-9.92-5.78-23.96-8.54-38.56-8.54-22.59,0-30.02,10.19-30.02,19.83s6.06,17.08,26.44,26.44l9.92,4.41c34.15,15.7,43.52,32.78,43.52,53.71,0,31.4-24.51,52.06-63.9,52.06-18.18,0-34.43-3.31-45.17-9.09Z"/>
        <path class="cls-1" d="m289.5,272.09c0,1.38-.55,2.48-1.93,3.03-6.61,2.75-13.5,3.58-22.03,3.58-22.04,0-34.7-11.02-34.7-37.46v-73.54h-16.53c-1.65-.28-1.93-.83-1.93-2.48v-22.59c0-1.65.28-2.2,1.93-2.2h16.53c.55-9.64,1.38-26.72,2.75-33.05.28-1.65.83-2.2,2.2-2.48l26.72-3.58c1.1-.28,1.93-.28,1.93,1.38-.83,8.54-1.38,23.69-1.38,37.73h25.62c1.38,0,1.93.55,1.93,1.93v23.41c0,1.38-.55,1.65-1.93,1.93h-25.89v66.93c0,11.84,3.86,17.63,14.87,17.63,3.31,0,6.61-.55,9.92-1.38,1.1,0,1.93.28,1.93,1.65v19.56Z"/>
      </g>
    </g>
  </g>
</svg>