<?xml version="1.0" encoding="UTF-8"?>
<svg id="Layer_2" data-name="Layer 2" xmlns="http://www.w3.org/2000/svg" viewBox="0 0 388.49 378.57">
  <defs>
    <style>
      .cls-1 {
        fill: #99e83f;
      }

      .cls-2 {
        fill: #1e3101;
      }
    </style>
  </defs>
  <g id="Layer_11" data-name="Layer 11">
    <g>
      <rect class="cls-2" width="388.49" height="378.57" rx="65.58" ry="65.58"/>
      <g>
        <path class="cls-1" d="m65.42,99.39c0-1.4.28-1.96,1.68-2.24,7.56-.28,26.33-.84,49.29-.84,62.17,0,93.54,36.69,93.54,88.78,0,70.02-50.97,95.22-94.38,95.22-16.24,0-40.05,0-48.45-.56-1.12,0-1.68-.84-1.68-2.52V99.39Zm32.49,152.08c5.04.28,10.64.56,16.8.56,36.13,0,61.61-22.69,61.61-66.1s-25.49-61.05-59.93-61.05c-7,0-12.6,0-18.48.28v126.31Z"/>
        <path class="cls-1" d="m280.78,165.76c-14.28,0-19.04,6.16-19.04,12.04s3.64,10.36,21.57,18.48c29.69,12.04,39.77,24.65,39.77,43.69,0,26.61-21,42.29-52.65,42.29-15.96,0-29.41-2.8-37.53-7.28-1.4-.84-1.68-1.68-1.68-3.08v-26.05c0-1.4.84-1.96,1.96-1.12,11.76,7.28,25.77,10.64,37.53,10.64,14.28,0,20.73-5.32,20.73-12.88,0-6.44-4.76-11.48-22.13-19.04-27.73-11.48-38.09-23.81-38.09-43.69,0-21.57,17.08-40.61,49.85-40.61,15.4,0,26.89,2.24,33.33,5.32,1.4.84,1.4,1.96,1.4,3.36v23.81c0,1.68-.84,2.52-2.52,1.68-8.12-4.48-20.72-7.56-32.49-7.56Z"/>
      </g>
    </g>
  </g>
</svg>