<?xml version="1.0" encoding="UTF-8"?>
<svg id="Layer_2" data-name="Layer 2" xmlns="http://www.w3.org/2000/svg" viewBox="0 0 389.09 379.16">
  <defs>
    <style>
      .cls-1 {
        fill: #011d33;
      }

      .cls-2 {
        fill: #00acff;
      }
    </style>
  </defs>
  <g id="Layer_6" data-name="Layer 6">
    <g>
      <rect class="cls-1" width="389.09" height="379.16" rx="65.68" ry="65.68"/>
      <g>
        <path class="cls-2" d="m93.71,281.16c-1.96,0-2.52-.84-2.52-2.8V100.52c0-1.4.56-2.52,2.24-2.52h28.33c1.4,0,1.96.84,1.96,1.96v151.75h77.14c1.68,0,2.24.84,1.96,1.96l-4.49,25.25c-.28,1.96-1.12,2.24-2.52,2.24h-102.1Z"/>
        <path class="cls-2" d="m247.42,142.88c1.4,0,2.24.56,2.8,1.96,1.4,3.37,2.52,10.66,2.81,16.55,9.26-11.78,24.96-21.04,42.92-21.04,1.4,0,1.96.28,1.96,1.96v29.17c0,1.12-.56,1.68-2.24,1.68-18.79-.56-34.5,6.17-40.95,14.31v91.72c0,1.4-.84,1.96-2.24,1.96h-28.05c-1.96,0-2.52-.56-2.52-2.24v-97.05c0-13.18-.28-28.33-1.4-37.31,0-1.12.28-1.68,1.68-1.68h25.24Z"/>
      </g>
    </g>
  </g>
</svg>